<svg width="21" height="20" viewBox="0 0 21 20" fill="none" xmlns="http://www.w3.org/2000/svg">
<path fill-rule="evenodd" clip-rule="evenodd" d="M10.5 0.25C5.11522 0.25 0.75 4.61522 0.75 10C0.75 15.3848 5.11522 19.75 10.5 19.75C15.8848 19.75 20.25 15.3848 20.25 10C20.2443 4.61758 15.8824 0.255684 10.5 0.25ZM10.5 18.25C5.94365 18.25 2.25 14.5563 2.25 10C2.25 5.44365 5.94365 1.75 10.5 1.75C15.0563 1.75 18.75 5.44365 18.75 10C18.7448 14.5542 15.0542 18.2448 10.5 18.25ZM16.5 10C16.5 10.4142 16.1642 10.75 15.75 10.75H10.5C10.0858 10.75 9.75 10.4142 9.75 10V4.75C9.75 4.33579 10.0858 4 10.5 4C10.9142 4 11.25 4.33579 11.25 4.75V9.25H15.75C16.1642 9.25 16.5 9.58579 16.5 10Z" fill="#171412"/>
</svg>
