<svg width="18" height="18" viewBox="0 0 18 18" fill="none" xmlns="http://www.w3.org/2000/svg">
<path fill-rule="evenodd" clip-rule="evenodd" d="M9.9375 13.0625C9.9375 13.5803 9.51777 14 9 14C8.48223 14 8.0625 13.5803 8.0625 13.0625C8.0625 12.5447 8.48223 12.125 9 12.125C9.51777 12.125 9.9375 12.5447 9.9375 13.0625ZM9 4.625C7.27656 4.625 5.875 5.88672 5.875 7.4375V7.75C5.875 8.09518 6.15482 8.375 6.5 8.375C6.84518 8.375 7.125 8.09518 7.125 7.75V7.4375C7.125 6.57812 7.96641 5.875 9 5.875C10.0336 5.875 10.875 6.57812 10.875 7.4375C10.875 8.29688 10.0336 9 9 9C8.65482 9 8.375 9.27982 8.375 9.625V10.25C8.375 10.5952 8.65482 10.875 9 10.875C9.34518 10.875 9.625 10.5952 9.625 10.25V10.1938C11.05 9.93203 12.125 8.79531 12.125 7.4375C12.125 5.88672 10.7234 4.625 9 4.625ZM17.125 9C17.125 13.4873 13.4873 17.125 9 17.125C4.51269 17.125 0.875 13.4873 0.875 9C0.875 4.51269 4.51269 0.875 9 0.875C13.4853 0.879737 17.1203 4.51465 17.125 9ZM15.875 9C15.875 5.20304 12.797 2.125 9 2.125C5.20304 2.125 2.125 5.20304 2.125 9C2.125 12.797 5.20304 15.875 9 15.875C12.7952 15.8707 15.8707 12.7952 15.875 9Z" fill="#1C170D"/>
</svg>
