<svg width="21" height="20" viewBox="0 0 21 20" fill="none" xmlns="http://www.w3.org/2000/svg">
<path fill-rule="evenodd" clip-rule="evenodd" d="M20.1488 17.875C18.7209 15.4066 16.5206 13.6366 13.9528 12.7975C16.5635 11.2433 17.8141 8.13638 17.0082 5.2069C16.2022 2.27741 13.5383 0.247449 10.5 0.247449C7.46167 0.247449 4.79779 2.27741 3.99182 5.2069C3.18585 8.13638 4.43645 11.2433 7.04719 12.7975C4.47938 13.6356 2.27906 15.4056 0.85125 17.875C0.708704 18.1074 0.703527 18.3989 0.837731 18.6363C0.971935 18.8736 1.22438 19.0194 1.49702 19.0171C1.76967 19.0147 2.01958 18.8646 2.14969 18.625C3.91594 15.5725 7.03781 13.75 10.5 13.75C13.9622 13.75 17.0841 15.5725 18.8503 18.625C18.9804 18.8646 19.2303 19.0147 19.503 19.0171C19.7756 19.0194 20.0281 18.8736 20.1623 18.6363C20.2965 18.3989 20.2913 18.1074 20.1488 17.875ZM5.25 7C5.25 4.1005 7.6005 1.75 10.5 1.75C13.3995 1.75 15.75 4.1005 15.75 7C15.75 9.8995 13.3995 12.25 10.5 12.25C7.60179 12.2469 5.2531 9.89821 5.25 7Z" fill="#171412"/>
</svg>
